<svg width="334" height="98" viewBox="0 0 334 98" fill="none" xmlns="http://www.w3.org/2000/svg">
<path d="M36.36 71V69.68C37.856 69.592 38.978 69.416 39.726 69.152C40.518 68.888 41.046 68.36 41.31 67.568C41.574 66.776 41.706 65.588 41.706 64.004V31.268C41.706 29.64 41.574 28.452 41.31 27.704C41.046 26.912 40.518 26.384 39.726 26.12C38.978 25.812 37.856 25.636 36.36 25.592V24.272C37.372 24.316 38.648 24.36 40.188 24.404C41.728 24.448 43.246 24.47 44.742 24.47C46.458 24.47 48.064 24.448 49.56 24.404C51.056 24.36 52.266 24.316 53.19 24.272V25.592C51.694 25.636 50.55 25.812 49.758 26.12C49.01 26.384 48.504 26.912 48.24 27.704C47.976 28.452 47.844 29.64 47.844 31.268V64.004C47.844 65.588 47.976 66.776 48.24 67.568C48.504 68.36 49.01 68.888 49.758 69.152C50.55 69.416 51.694 69.592 53.19 69.68V71C52.266 70.912 51.056 70.868 49.56 70.868C48.064 70.824 46.458 70.802 44.742 70.802C43.246 70.802 41.728 70.824 40.188 70.868C38.648 70.868 37.372 70.912 36.36 71ZM8.772 71V69.68C10.268 69.592 11.39 69.416 12.138 69.152C12.93 68.888 13.458 68.36 13.722 67.568C13.986 66.776 14.118 65.588 14.118 64.004V31.268C14.118 29.64 13.986 28.452 13.722 27.704C13.458 26.912 12.93 26.384 12.138 26.12C11.39 25.812 10.268 25.636 8.772 25.592V24.272C9.696 24.316 10.906 24.36 12.402 24.404C13.898 24.448 15.504 24.47 17.22 24.47C18.76 24.47 20.278 24.448 21.774 24.404C23.314 24.36 24.59 24.316 25.602 24.272V25.592C24.106 25.636 22.962 25.812 22.17 26.12C21.422 26.384 20.916 26.912 20.652 27.704C20.388 28.452 20.256 29.64 20.256 31.268V64.004C20.256 65.588 20.388 66.776 20.652 67.568C20.916 68.36 21.422 68.888 22.17 69.152C22.962 69.416 24.106 69.592 25.602 69.68V71C24.59 70.912 23.314 70.868 21.774 70.868C20.278 70.824 18.76 70.802 17.22 70.802C15.504 70.802 13.898 70.824 12.402 70.868C10.906 70.868 9.696 70.912 8.772 71ZM17.946 48.164V46.844H44.016V48.164H17.946ZM81.2415 23.348C84.1455 23.348 86.5215 23.788 88.3695 24.668C90.2615 25.504 91.9335 26.494 93.3855 27.638C94.2655 28.298 94.9255 28.386 95.3655 27.902C95.8495 27.374 96.1795 26.164 96.3555 24.272H97.8735C97.7855 25.9 97.7195 27.88 97.6755 30.212C97.6315 32.544 97.6095 35.624 97.6095 39.452H96.0915C95.7835 37.56 95.4975 36.064 95.2335 34.964C94.9695 33.82 94.6395 32.852 94.2435 32.06C93.8915 31.268 93.4075 30.476 92.7915 29.684C91.4275 27.88 89.7115 26.582 87.6435 25.79C85.5755 24.954 83.3975 24.536 81.1095 24.536C78.9535 24.536 76.9955 25.086 75.2355 26.186C73.5195 27.242 72.0235 28.782 70.7475 30.806C69.5155 32.83 68.5475 35.272 67.8435 38.132C67.1835 40.992 66.8535 44.204 66.8535 47.768C66.8535 51.464 67.2275 54.742 67.9755 57.602C68.7235 60.418 69.7575 62.794 71.0775 64.73C72.4415 66.666 74.0255 68.14 75.8295 69.152C77.6775 70.12 79.6575 70.604 81.7695 70.604C83.7495 70.604 85.8175 70.208 87.9735 69.416C90.1295 68.624 91.8235 67.348 93.0555 65.588C94.0235 64.312 94.6835 62.926 95.0355 61.43C95.4315 59.934 95.7835 57.844 96.0915 55.16H97.6095C97.6095 59.164 97.6315 62.398 97.6755 64.862C97.7195 67.282 97.7855 69.328 97.8735 71H96.3555C96.1795 69.108 95.8715 67.92 95.4315 67.436C95.0355 66.952 94.3535 67.018 93.3855 67.634C91.7575 68.778 90.0195 69.79 88.1715 70.67C86.3675 71.506 84.0355 71.924 81.1755 71.924C76.9955 71.924 73.3215 70.978 70.1535 69.086C67.0295 67.194 64.5875 64.466 62.8275 60.902C61.1115 57.338 60.2535 53.048 60.2535 48.032C60.2535 43.104 61.1555 38.792 62.9595 35.096C64.7635 31.4 67.2275 28.518 70.3515 26.45C73.5195 24.382 77.1495 23.348 81.2415 23.348ZM128.331 23.348C131.191 23.348 133.501 23.788 135.261 24.668C137.021 25.504 138.671 26.494 140.211 27.638C140.783 28.078 141.223 28.298 141.531 28.298C142.367 28.298 142.917 26.956 143.181 24.272H144.699C144.611 25.9 144.545 27.88 144.501 30.212C144.457 32.544 144.435 35.624 144.435 39.452H142.917C142.609 37.604 142.235 35.822 141.795 34.106C141.355 32.39 140.629 30.916 139.617 29.684C138.341 28.056 136.669 26.802 134.601 25.922C132.533 24.998 130.399 24.536 128.199 24.536C125.999 24.536 123.997 25.086 122.193 26.186C120.433 27.242 118.915 28.782 117.639 30.806C116.363 32.83 115.373 35.272 114.669 38.132C114.009 40.948 113.679 44.138 113.679 47.702C113.679 55.622 114.955 61.43 117.507 65.126C120.059 68.778 124.019 70.604 129.387 70.604C130.971 70.604 132.335 70.384 133.479 69.944C134.667 69.46 135.591 68.998 136.251 68.558C137.087 67.986 137.615 67.458 137.835 66.974C138.055 66.446 138.165 65.764 138.165 64.928V58.592C138.165 56.788 137.989 55.446 137.637 54.566C137.285 53.686 136.625 53.092 135.657 52.784C134.733 52.476 133.347 52.3 131.499 52.256V50.936C132.291 50.98 133.215 51.024 134.271 51.068C135.327 51.068 136.427 51.09 137.571 51.134C138.759 51.134 139.837 51.134 140.805 51.134C142.257 51.134 143.555 51.112 144.699 51.068C145.887 51.024 146.877 50.98 147.669 50.936V52.256C146.701 52.3 145.975 52.454 145.491 52.718C145.007 52.982 144.677 53.51 144.501 54.302C144.369 55.094 144.303 56.304 144.303 57.932V71H142.983C142.939 70.252 142.763 69.438 142.455 68.558C142.191 67.678 141.773 67.238 141.201 67.238C140.937 67.238 140.673 67.304 140.409 67.436C140.145 67.568 139.683 67.876 139.023 68.36C137.571 69.46 136.031 70.34 134.403 71C132.775 71.616 130.883 71.924 128.727 71.924C124.195 71.924 120.301 71 117.045 69.152C113.833 67.26 111.369 64.554 109.653 61.034C107.937 57.514 107.079 53.312 107.079 48.428C107.079 43.28 108.003 38.836 109.851 35.096C111.699 31.356 114.207 28.474 117.375 26.45C120.587 24.382 124.239 23.348 128.331 23.348Z" fill="white"/>
<path d="M178.328 33V32.68C178.68 32.6587 178.941 32.616 179.112 32.552C179.293 32.488 179.411 32.36 179.464 32.168C179.528 31.976 179.56 31.688 179.56 31.304V23.368C179.56 22.9733 179.528 22.6853 179.464 22.504C179.411 22.312 179.293 22.184 179.112 22.12C178.941 22.0453 178.68 22.0027 178.328 21.992V21.672C178.616 21.6827 178.973 21.6933 179.4 21.704C179.827 21.7147 180.253 21.72 180.68 21.72C181.149 21.72 181.587 21.7147 181.992 21.704C182.408 21.6933 182.739 21.6827 182.984 21.672V21.992C182.643 22.0027 182.381 22.0453 182.2 22.12C182.029 22.184 181.912 22.312 181.848 22.504C181.784 22.6853 181.752 22.9733 181.752 23.368V31.304C181.752 31.688 181.784 31.976 181.848 32.168C181.912 32.36 182.029 32.488 182.2 32.552C182.381 32.616 182.643 32.6587 182.984 32.68V33C182.739 32.9787 182.408 32.968 181.992 32.968C181.587 32.9573 181.149 32.952 180.68 32.952C180.253 32.952 179.827 32.9573 179.4 32.968C178.973 32.968 178.616 32.9787 178.328 33ZM171.576 33V32.68C171.928 32.6587 172.189 32.616 172.36 32.552C172.541 32.488 172.659 32.36 172.712 32.168C172.776 31.976 172.808 31.688 172.808 31.304V23.368C172.808 22.9733 172.776 22.6853 172.712 22.504C172.659 22.312 172.541 22.184 172.36 22.12C172.189 22.0453 171.928 22.0027 171.576 21.992V21.672C171.843 21.6827 172.184 21.6933 172.6 21.704C173.016 21.7147 173.464 21.72 173.944 21.72C174.371 21.72 174.792 21.7147 175.208 21.704C175.624 21.6933 175.965 21.6827 176.232 21.672V21.992C175.891 22.0027 175.629 22.0453 175.448 22.12C175.277 22.184 175.16 22.312 175.096 22.504C175.032 22.6853 175 22.9733 175 23.368V31.304C175 31.688 175.032 31.976 175.096 32.168C175.16 32.36 175.277 32.488 175.448 32.552C175.629 32.616 175.891 32.6587 176.232 32.68V33C175.965 32.9787 175.624 32.968 175.208 32.968C174.792 32.9573 174.371 32.952 173.944 32.952C173.464 32.952 173.016 32.9573 172.6 32.968C172.184 32.968 171.843 32.9787 171.576 33ZM174.12 27.464V27.144H180.44V27.464H174.12ZM186.778 20.648C187.162 20.648 187.477 20.7547 187.722 20.968C187.967 21.1813 188.09 21.464 188.09 21.816C188.09 22.168 187.967 22.4507 187.722 22.664C187.477 22.8773 187.162 22.984 186.778 22.984C186.394 22.984 186.079 22.8773 185.834 22.664C185.589 22.4507 185.466 22.168 185.466 21.816C185.466 21.464 185.589 21.1813 185.834 20.968C186.079 20.7547 186.394 20.648 186.778 20.648ZM187.898 24.552V31.512C187.898 31.96 187.978 32.264 188.138 32.424C188.309 32.584 188.591 32.664 188.986 32.664V33C188.794 32.9893 188.501 32.9787 188.106 32.968C187.711 32.9467 187.311 32.936 186.906 32.936C186.511 32.936 186.111 32.9467 185.706 32.968C185.301 32.9787 184.997 32.9893 184.794 33V32.664C185.189 32.664 185.466 32.584 185.626 32.424C185.797 32.264 185.882 31.96 185.882 31.512V26.488C185.882 25.9973 185.802 25.64 185.642 25.416C185.493 25.1813 185.21 25.064 184.794 25.064V24.728C185.135 24.76 185.466 24.776 185.786 24.776C186.181 24.776 186.554 24.76 186.906 24.728C187.269 24.6853 187.599 24.6267 187.898 24.552ZM193.556 36.008C192.927 36.008 192.356 35.9493 191.844 35.832C191.332 35.7147 190.927 35.5387 190.628 35.304C190.329 35.08 190.18 34.792 190.18 34.44C190.18 34.0987 190.329 33.7947 190.628 33.528C190.927 33.2613 191.364 33.0587 191.94 32.92L192.052 33.176C191.849 33.2933 191.695 33.4533 191.588 33.656C191.481 33.8587 191.428 34.072 191.428 34.296C191.428 34.7547 191.636 35.1067 192.052 35.352C192.479 35.608 193.044 35.736 193.748 35.736C194.228 35.736 194.671 35.672 195.076 35.544C195.481 35.416 195.807 35.2187 196.052 34.952C196.297 34.6853 196.42 34.3547 196.42 33.96C196.42 33.6293 196.297 33.352 196.052 33.128C195.817 32.904 195.343 32.792 194.628 32.792H193.572C193.177 32.792 192.815 32.7493 192.484 32.664C192.164 32.5787 191.908 32.44 191.716 32.248C191.524 32.056 191.428 31.7893 191.428 31.448C191.428 31.032 191.599 30.6587 191.94 30.328C192.281 29.9867 192.815 29.656 193.54 29.336L193.716 29.48C193.449 29.6187 193.209 29.768 192.996 29.928C192.793 30.088 192.692 30.2907 192.692 30.536C192.692 30.8773 192.927 31.048 193.396 31.048H195.204C195.759 31.048 196.249 31.1173 196.676 31.256C197.113 31.3947 197.46 31.6133 197.716 31.912C197.972 32.2107 198.1 32.6053 198.1 33.096C198.1 33.608 197.935 34.0827 197.604 34.52C197.273 34.968 196.772 35.3253 196.1 35.592C195.439 35.8693 194.591 36.008 193.556 36.008ZM193.7 29.592C193.124 29.592 192.601 29.5067 192.132 29.336C191.673 29.1547 191.311 28.8773 191.044 28.504C190.777 28.12 190.644 27.6347 190.644 27.048C190.644 26.4613 190.777 25.9813 191.044 25.608C191.311 25.2347 191.673 24.9573 192.132 24.776C192.601 24.5947 193.124 24.504 193.7 24.504C194.287 24.504 194.809 24.5947 195.268 24.776C195.727 24.9573 196.089 25.2347 196.356 25.608C196.623 25.9813 196.756 26.4613 196.756 27.048C196.756 27.6347 196.623 28.12 196.356 28.504C196.089 28.8773 195.727 29.1547 195.268 29.336C194.809 29.5067 194.287 29.592 193.7 29.592ZM193.7 29.304C194.02 29.304 194.271 29.144 194.452 28.824C194.644 28.4933 194.74 27.9013 194.74 27.048C194.74 26.1947 194.644 25.608 194.452 25.288C194.271 24.9573 194.02 24.792 193.7 24.792C193.38 24.792 193.124 24.9573 192.932 25.288C192.751 25.608 192.66 26.1947 192.66 27.048C192.66 27.9013 192.751 28.4933 192.932 28.824C193.124 29.144 193.38 29.304 193.7 29.304ZM196.116 25.864L195.812 25.752C195.972 25.3573 196.233 25.0267 196.596 24.76C196.959 24.4827 197.343 24.344 197.748 24.344C198.057 24.344 198.297 24.4293 198.468 24.6C198.649 24.7707 198.74 25.0107 198.74 25.32C198.74 25.64 198.655 25.8747 198.484 26.024C198.313 26.1733 198.127 26.248 197.924 26.248C197.743 26.248 197.577 26.1893 197.428 26.072C197.279 25.944 197.193 25.752 197.172 25.496C197.151 25.2293 197.236 24.8987 197.428 24.504L197.588 24.568C197.172 24.728 196.863 24.904 196.66 25.096C196.457 25.288 196.276 25.544 196.116 25.864ZM203.027 20.472V26.136C203.293 25.5387 203.661 25.1173 204.131 24.872C204.611 24.6267 205.128 24.504 205.683 24.504C206.12 24.504 206.477 24.5627 206.755 24.68C207.032 24.7973 207.256 24.9467 207.427 25.128C207.608 25.3307 207.736 25.592 207.811 25.912C207.896 26.232 207.939 26.664 207.939 27.208V31.512C207.939 31.96 208.019 32.264 208.179 32.424C208.349 32.584 208.632 32.664 209.027 32.664V33C208.835 32.9893 208.541 32.9787 208.147 32.968C207.752 32.9467 207.363 32.936 206.979 32.936C206.595 32.936 206.216 32.9467 205.843 32.968C205.469 32.9787 205.187 32.9893 204.995 33V32.664C205.336 32.664 205.576 32.584 205.715 32.424C205.853 32.264 205.923 31.96 205.923 31.512V26.664C205.923 26.376 205.896 26.12 205.843 25.896C205.789 25.6613 205.683 25.48 205.523 25.352C205.373 25.2133 205.144 25.144 204.835 25.144C204.493 25.144 204.184 25.24 203.907 25.432C203.64 25.6133 203.427 25.8747 203.267 26.216C203.107 26.5467 203.027 26.9253 203.027 27.352V31.512C203.027 31.96 203.096 32.264 203.235 32.424C203.384 32.584 203.624 32.664 203.955 32.664V33C203.773 32.9893 203.501 32.9787 203.139 32.968C202.787 32.9467 202.419 32.936 202.035 32.936C201.651 32.936 201.251 32.9467 200.835 32.968C200.429 32.9787 200.125 32.9893 199.923 33V32.664C200.317 32.664 200.595 32.584 200.755 32.424C200.925 32.264 201.011 31.96 201.011 31.512V22.392C201.011 21.912 200.931 21.56 200.771 21.336C200.621 21.1013 200.339 20.984 199.923 20.984V20.648C200.264 20.68 200.595 20.696 200.915 20.696C201.32 20.696 201.699 20.68 202.051 20.648C202.403 20.6053 202.728 20.5467 203.027 20.472ZM213.468 20.472V31.512C213.468 31.96 213.548 32.264 213.708 32.424C213.878 32.584 214.161 32.664 214.556 32.664V33C214.364 32.9893 214.07 32.9787 213.676 32.968C213.292 32.9467 212.897 32.936 212.492 32.936C212.097 32.936 211.692 32.9467 211.276 32.968C210.87 32.9787 210.566 32.9893 210.364 33V32.664C210.758 32.664 211.036 32.584 211.196 32.424C211.366 32.264 211.452 31.96 211.452 31.512V22.392C211.452 21.912 211.377 21.56 211.228 21.336C211.078 21.1013 210.79 20.984 210.364 20.984V20.648C210.705 20.68 211.036 20.696 211.356 20.696C211.761 20.696 212.14 20.68 212.492 20.648C212.844 20.6053 213.169 20.5467 213.468 20.472ZM218.328 33.112C217.869 33.112 217.48 33.0267 217.16 32.856C216.84 32.6747 216.6 32.4347 216.44 32.136C216.28 31.8267 216.2 31.4853 216.2 31.112C216.2 30.6533 216.306 30.28 216.52 29.992C216.733 29.6933 217.005 29.4587 217.336 29.288C217.677 29.1067 218.034 28.9573 218.408 28.84C218.781 28.712 219.133 28.5947 219.464 28.488C219.794 28.3707 220.066 28.2373 220.28 28.088C220.493 27.9387 220.6 27.7413 220.6 27.496V26.328C220.6 25.9867 220.546 25.7093 220.44 25.496C220.344 25.272 220.194 25.1067 219.992 25C219.8 24.8827 219.554 24.824 219.256 24.824C219.032 24.824 218.797 24.856 218.552 24.92C218.306 24.984 218.104 25.1067 217.944 25.288C218.221 25.3627 218.434 25.5013 218.584 25.704C218.744 25.9067 218.824 26.152 218.824 26.44C218.824 26.7707 218.712 27.032 218.488 27.224C218.274 27.4053 218.002 27.496 217.672 27.496C217.32 27.496 217.053 27.384 216.872 27.16C216.69 26.936 216.6 26.6747 216.6 26.376C216.6 26.0773 216.674 25.832 216.824 25.64C216.973 25.4373 217.181 25.256 217.448 25.096C217.714 24.9147 218.056 24.7707 218.472 24.664C218.888 24.5573 219.341 24.504 219.832 24.504C220.301 24.504 220.717 24.5573 221.08 24.664C221.442 24.76 221.752 24.936 222.008 25.192C222.264 25.4373 222.429 25.7413 222.504 26.104C222.578 26.4667 222.616 26.9093 222.616 27.432V31.816C222.616 32.0827 222.648 32.2747 222.712 32.392C222.776 32.4987 222.877 32.552 223.016 32.552C223.122 32.552 223.224 32.5253 223.32 32.472C223.416 32.4187 223.522 32.344 223.64 32.248L223.816 32.52C223.581 32.7013 223.336 32.8453 223.08 32.952C222.824 33.0587 222.514 33.112 222.152 33.112C221.778 33.112 221.48 33.0587 221.256 32.952C221.042 32.8453 220.882 32.6907 220.776 32.488C220.68 32.2853 220.626 32.0453 220.616 31.768C220.36 32.1947 220.045 32.5253 219.672 32.76C219.298 32.9947 218.85 33.112 218.328 33.112ZM219.288 32.216C219.544 32.216 219.778 32.1467 219.992 32.008C220.216 31.8693 220.418 31.6613 220.6 31.384V28.152C220.493 28.312 220.338 28.456 220.136 28.584C219.944 28.712 219.736 28.84 219.512 28.968C219.288 29.096 219.074 29.2453 218.872 29.416C218.68 29.576 218.514 29.7787 218.376 30.024C218.248 30.2587 218.184 30.5627 218.184 30.936C218.184 31.352 218.285 31.672 218.488 31.896C218.69 32.1093 218.957 32.216 219.288 32.216ZM230.819 24.504C231.267 24.504 231.625 24.5627 231.891 24.68C232.169 24.7973 232.393 24.9467 232.563 25.128C232.755 25.3307 232.889 25.592 232.963 25.912C233.049 26.232 233.091 26.664 233.091 27.208V31.512C233.091 31.96 233.171 32.264 233.331 32.424C233.502 32.584 233.785 32.664 234.179 32.664V33C233.987 32.9893 233.689 32.9787 233.283 32.968C232.889 32.9467 232.505 32.936 232.131 32.936C231.737 32.936 231.353 32.9467 230.979 32.968C230.606 32.9787 230.329 32.9893 230.147 33V32.664C230.489 32.664 230.729 32.584 230.867 32.424C231.006 32.264 231.075 31.96 231.075 31.512V26.664C231.075 26.376 231.049 26.12 230.995 25.896C230.942 25.6613 230.835 25.48 230.675 25.352C230.515 25.2133 230.286 25.144 229.987 25.144C229.635 25.144 229.321 25.24 229.043 25.432C228.777 25.624 228.563 25.8907 228.403 26.232C228.254 26.5627 228.179 26.936 228.179 27.352V31.512C228.179 31.96 228.249 32.264 228.387 32.424C228.526 32.584 228.766 32.664 229.107 32.664V33C228.926 32.9893 228.654 32.9787 228.291 32.968C227.929 32.9467 227.561 32.936 227.187 32.936C226.793 32.936 226.393 32.9467 225.987 32.968C225.582 32.9787 225.278 32.9893 225.075 33V32.664C225.47 32.664 225.747 32.584 225.907 32.424C226.078 32.264 226.163 31.96 226.163 31.512V26.472C226.163 25.992 226.083 25.64 225.923 25.416C225.774 25.1813 225.491 25.064 225.075 25.064V24.728C225.417 24.76 225.747 24.776 226.067 24.776C226.462 24.776 226.835 24.76 227.187 24.728C227.55 24.6853 227.881 24.6267 228.179 24.552V26.152C228.446 25.544 228.814 25.1173 229.283 24.872C229.753 24.6267 230.265 24.504 230.819 24.504ZM243.274 20.472V31.256C243.274 31.736 243.354 32.0933 243.514 32.328C243.674 32.552 243.956 32.664 244.362 32.664V33C244.031 32.968 243.7 32.952 243.37 32.952C242.975 32.952 242.602 32.968 242.25 33C241.898 33.032 241.567 33.0907 241.258 33.176V22.392C241.258 21.912 241.178 21.56 241.018 21.336C240.868 21.1013 240.586 20.984 240.17 20.984V20.648C240.511 20.68 240.842 20.696 241.162 20.696C241.567 20.696 241.946 20.68 242.298 20.648C242.65 20.6053 242.975 20.5467 243.274 20.472ZM239.45 24.504C239.919 24.504 240.34 24.5947 240.714 24.776C241.087 24.9573 241.364 25.2613 241.546 25.688L241.354 25.848C241.204 25.5387 241.002 25.3093 240.746 25.16C240.49 25.0107 240.202 24.936 239.882 24.936C239.306 24.936 238.842 25.2613 238.49 25.912C238.148 26.552 237.978 27.5387 237.978 28.872C237.978 29.768 238.047 30.4933 238.186 31.048C238.324 31.592 238.522 31.9867 238.778 32.232C239.044 32.4773 239.359 32.6 239.722 32.6C240.106 32.6 240.452 32.4453 240.762 32.136C241.071 31.816 241.252 31.3627 241.306 30.776L241.418 31.224C241.279 31.8747 241.018 32.3707 240.634 32.712C240.25 33.0533 239.743 33.224 239.114 33.224C238.474 33.224 237.903 33.0693 237.402 32.76C236.911 32.44 236.527 31.96 236.25 31.32C235.983 30.6693 235.85 29.848 235.85 28.856C235.85 27.8853 236.01 27.08 236.33 26.44C236.65 25.7893 237.082 25.304 237.626 24.984C238.17 24.664 238.778 24.504 239.45 24.504ZM249.911 24.504C250.849 24.504 251.585 24.7867 252.119 25.352C252.652 25.9173 252.919 26.8187 252.919 28.056H247.527L247.511 27.752H251.063C251.084 27.2293 251.052 26.7493 250.967 26.312C250.881 25.864 250.743 25.5067 250.551 25.24C250.369 24.9733 250.129 24.84 249.831 24.84C249.425 24.84 249.073 25.08 248.775 25.56C248.476 26.0293 248.289 26.8027 248.215 27.88L248.279 27.976C248.257 28.1147 248.241 28.264 248.231 28.424C248.231 28.584 248.231 28.744 248.231 28.904C248.231 29.64 248.337 30.248 248.551 30.728C248.764 31.208 249.041 31.56 249.383 31.784C249.724 32.008 250.076 32.12 250.439 32.12C250.684 32.12 250.935 32.0827 251.191 32.008C251.447 31.9333 251.697 31.7947 251.943 31.592C252.188 31.3893 252.412 31.1013 252.615 30.728L252.919 30.856C252.801 31.2293 252.604 31.6027 252.327 31.976C252.06 32.3387 251.713 32.6373 251.287 32.872C250.86 33.1067 250.359 33.224 249.783 33.224C249.057 33.224 248.417 33.064 247.863 32.744C247.308 32.424 246.876 31.9493 246.567 31.32C246.257 30.68 246.103 29.9013 246.103 28.984C246.103 28.0133 246.263 27.1973 246.583 26.536C246.913 25.8747 247.367 25.3733 247.943 25.032C248.519 24.68 249.175 24.504 249.911 24.504ZM260.006 24.504C260.337 24.504 260.609 24.5733 260.822 24.712C261.046 24.8507 261.211 25.0267 261.318 25.24C261.425 25.4533 261.478 25.6773 261.478 25.912C261.478 26.264 261.371 26.5573 261.158 26.792C260.955 27.0267 260.683 27.144 260.342 27.144C260.022 27.144 259.761 27.0587 259.558 26.888C259.355 26.7173 259.254 26.4827 259.254 26.184C259.254 25.9173 259.318 25.6933 259.446 25.512C259.585 25.3307 259.739 25.1867 259.91 25.08C259.793 25.016 259.659 24.9947 259.51 25.016C259.254 25.0373 259.019 25.128 258.806 25.288C258.593 25.448 258.411 25.6453 258.262 25.88C258.113 26.1147 257.995 26.3653 257.91 26.632C257.835 26.8987 257.798 27.1547 257.798 27.4V31.352C257.798 31.8747 257.931 32.2267 258.198 32.408C258.465 32.5787 258.854 32.664 259.366 32.664V33C259.121 32.9893 258.763 32.9787 258.294 32.968C257.835 32.9467 257.355 32.936 256.854 32.936C256.438 32.936 256.022 32.9467 255.606 32.968C255.201 32.9787 254.897 32.9893 254.694 33V32.664C255.089 32.664 255.366 32.584 255.526 32.424C255.697 32.264 255.782 31.96 255.782 31.512V26.472C255.782 25.992 255.702 25.64 255.542 25.416C255.393 25.1813 255.11 25.064 254.694 25.064V24.728C255.035 24.76 255.366 24.776 255.686 24.776C256.081 24.776 256.454 24.76 256.806 24.728C257.169 24.6853 257.499 24.6267 257.798 24.552V26.216C257.926 25.9173 258.091 25.64 258.294 25.384C258.507 25.128 258.758 24.92 259.046 24.76C259.345 24.5893 259.665 24.504 260.006 24.504ZM177.208 42.448C177.912 42.448 178.488 42.5547 178.936 42.768C179.395 42.9707 179.8 43.2107 180.152 43.488C180.365 43.648 180.525 43.6693 180.632 43.552C180.749 43.424 180.829 43.1307 180.872 42.672H181.24C181.219 43.0773 181.203 43.5733 181.192 44.16C181.181 44.7467 181.176 45.52 181.176 46.48H180.808C180.744 46 180.675 45.6 180.6 45.28C180.525 44.9493 180.419 44.6667 180.28 44.432C180.152 44.1973 179.971 43.9733 179.736 43.76C179.448 43.44 179.101 43.2053 178.696 43.056C178.301 42.896 177.885 42.816 177.448 42.816C176.893 42.816 176.408 42.9653 175.992 43.264C175.587 43.552 175.245 43.952 174.968 44.464C174.701 44.9653 174.499 45.552 174.36 46.224C174.232 46.896 174.168 47.6107 174.168 48.368C174.168 49.1467 174.237 49.872 174.376 50.544C174.525 51.2053 174.739 51.7867 175.016 52.288C175.304 52.7787 175.656 53.1627 176.072 53.44C176.499 53.7173 176.989 53.856 177.544 53.856C177.939 53.856 178.344 53.7813 178.76 53.632C179.176 53.4827 179.517 53.2533 179.784 52.944C180.136 52.624 180.376 52.2453 180.504 51.808C180.632 51.36 180.733 50.768 180.808 50.032H181.176C181.176 51.0347 181.181 51.8453 181.192 52.464C181.203 53.072 181.219 53.584 181.24 54H180.872C180.829 53.5413 180.755 53.2533 180.648 53.136C180.552 53.0187 180.387 53.0347 180.152 53.184C179.757 53.4613 179.336 53.7067 178.888 53.92C178.451 54.1227 177.885 54.224 177.192 54.224C176.104 54.224 175.149 53.9947 174.328 53.536C173.507 53.0773 172.867 52.416 172.408 51.552C171.96 50.688 171.736 49.648 171.736 48.432C171.736 47.2373 171.971 46.192 172.44 45.296C172.909 44.4 173.555 43.7013 174.376 43.2C175.197 42.6987 176.141 42.448 177.208 42.448ZM187.483 45.504C188.219 45.504 188.87 45.6533 189.435 45.952C190.011 46.24 190.464 46.704 190.795 47.344C191.136 47.984 191.307 48.8267 191.307 49.872C191.307 50.9173 191.136 51.76 190.795 52.4C190.464 53.04 190.011 53.504 189.435 53.792C188.87 54.08 188.219 54.224 187.483 54.224C186.747 54.224 186.091 54.08 185.515 53.792C184.939 53.504 184.486 53.04 184.155 52.4C183.824 51.76 183.659 50.9173 183.659 49.872C183.659 48.8267 183.824 47.984 184.155 47.344C184.486 46.704 184.939 46.24 185.515 45.952C186.091 45.6533 186.747 45.504 187.483 45.504ZM187.483 45.824C186.982 45.824 186.571 46.144 186.251 46.784C185.942 47.4133 185.787 48.4427 185.787 49.872C185.787 51.3013 185.942 52.3307 186.251 52.96C186.571 53.5893 186.982 53.904 187.483 53.904C187.974 53.904 188.379 53.5893 188.699 52.96C189.019 52.3307 189.179 51.3013 189.179 49.872C189.179 48.4427 189.019 47.4133 188.699 46.784C188.379 46.144 187.974 45.824 187.483 45.824ZM198.901 45.504C199.349 45.504 199.706 45.5627 199.973 45.68C200.25 45.7973 200.474 45.9467 200.645 46.128C200.837 46.3307 200.97 46.592 201.045 46.912C201.13 47.232 201.173 47.664 201.173 48.208V52.512C201.173 52.96 201.253 53.264 201.413 53.424C201.583 53.584 201.866 53.664 202.261 53.664V54C202.069 53.9893 201.77 53.9787 201.365 53.968C200.97 53.9467 200.586 53.936 200.213 53.936C199.818 53.936 199.434 53.9467 199.061 53.968C198.687 53.9787 198.41 53.9893 198.229 54V53.664C198.57 53.664 198.81 53.584 198.949 53.424C199.087 53.264 199.157 52.96 199.157 52.512V47.664C199.157 47.376 199.13 47.12 199.077 46.896C199.023 46.6613 198.917 46.48 198.757 46.352C198.597 46.2133 198.367 46.144 198.069 46.144C197.717 46.144 197.402 46.24 197.125 46.432C196.858 46.624 196.645 46.8907 196.485 47.232C196.335 47.5627 196.261 47.936 196.261 48.352V52.512C196.261 52.96 196.33 53.264 196.469 53.424C196.607 53.584 196.847 53.664 197.189 53.664V54C197.007 53.9893 196.735 53.9787 196.373 53.968C196.01 53.9467 195.642 53.936 195.269 53.936C194.874 53.936 194.474 53.9467 194.069 53.968C193.663 53.9787 193.359 53.9893 193.157 54V53.664C193.551 53.664 193.829 53.584 193.989 53.424C194.159 53.264 194.245 52.96 194.245 52.512V47.472C194.245 46.992 194.165 46.64 194.005 46.416C193.855 46.1813 193.573 46.064 193.157 46.064V45.728C193.498 45.76 193.829 45.776 194.149 45.776C194.543 45.776 194.917 45.76 195.269 45.728C195.631 45.6853 195.962 45.6267 196.261 45.552V47.152C196.527 46.544 196.895 46.1173 197.365 45.872C197.834 45.6267 198.346 45.504 198.901 45.504ZM206.747 45.504C207.195 45.504 207.579 45.568 207.899 45.696C208.219 45.824 208.454 45.936 208.603 46.032C208.966 46.2987 209.184 46.128 209.259 45.52H209.611C209.59 45.8293 209.574 46.1973 209.563 46.624C209.552 47.04 209.547 47.6 209.547 48.304H209.195C209.142 47.9093 209.04 47.5253 208.891 47.152C208.742 46.7787 208.523 46.4693 208.235 46.224C207.947 45.968 207.568 45.84 207.099 45.84C206.768 45.84 206.491 45.936 206.267 46.128C206.054 46.32 205.947 46.592 205.947 46.944C205.947 47.264 206.043 47.5467 206.235 47.792C206.427 48.0267 206.672 48.2507 206.971 48.464C207.28 48.6667 207.6 48.8907 207.931 49.136C208.315 49.392 208.656 49.6533 208.955 49.92C209.254 50.176 209.494 50.464 209.675 50.784C209.856 51.0933 209.947 51.4613 209.947 51.888C209.947 52.3787 209.808 52.8 209.531 53.152C209.264 53.4933 208.907 53.76 208.459 53.952C208.022 54.1333 207.536 54.224 207.003 54.224C206.715 54.224 206.454 54.1973 206.219 54.144C205.984 54.0907 205.776 54.0213 205.595 53.936C205.456 53.8613 205.328 53.792 205.211 53.728C205.104 53.664 204.992 53.6107 204.875 53.568C204.768 53.5147 204.672 53.536 204.587 53.632C204.512 53.728 204.454 53.888 204.411 54.112H204.059C204.08 53.7707 204.096 53.3547 204.107 52.864C204.118 52.3733 204.123 51.7227 204.123 50.912H204.475C204.55 51.4987 204.662 52.016 204.811 52.464C204.971 52.9013 205.2 53.248 205.499 53.504C205.798 53.7493 206.182 53.872 206.651 53.872C206.854 53.872 207.046 53.8293 207.227 53.744C207.419 53.6587 207.574 53.5253 207.691 53.344C207.819 53.1627 207.883 52.9173 207.883 52.608C207.883 52.1387 207.723 51.7493 207.403 51.44C207.083 51.1307 206.683 50.8 206.203 50.448C205.84 50.1813 205.499 49.92 205.179 49.664C204.87 49.408 204.614 49.12 204.411 48.8C204.219 48.48 204.123 48.1013 204.123 47.664C204.123 47.184 204.246 46.7893 204.491 46.48C204.736 46.16 205.056 45.92 205.451 45.76C205.856 45.5893 206.288 45.504 206.747 45.504ZM219.532 45.552V52.272C219.532 52.752 219.612 53.1093 219.772 53.344C219.932 53.568 220.214 53.68 220.62 53.68V54.016C220.289 53.984 219.958 53.968 219.628 53.968C219.233 53.968 218.854 53.984 218.492 54.016C218.14 54.048 217.814 54.1067 217.516 54.192V52.592C217.249 53.1787 216.881 53.6 216.412 53.856C215.953 54.1013 215.457 54.224 214.924 54.224C214.508 54.224 214.156 54.1653 213.868 54.048C213.59 53.9413 213.366 53.792 213.196 53.6C213.014 53.3973 212.886 53.1307 212.812 52.8C212.737 52.4693 212.7 52.0427 212.7 51.52V47.472C212.7 46.992 212.62 46.64 212.46 46.416C212.31 46.1813 212.028 46.064 211.612 46.064V45.728C211.953 45.76 212.284 45.776 212.604 45.776C212.998 45.776 213.372 45.76 213.724 45.728C214.086 45.6853 214.417 45.6267 214.716 45.552V52.08C214.716 52.368 214.737 52.624 214.78 52.848C214.833 53.072 214.934 53.2533 215.084 53.392C215.233 53.52 215.457 53.584 215.756 53.584C216.086 53.584 216.385 53.488 216.652 53.296C216.918 53.104 217.126 52.8427 217.276 52.512C217.436 52.1813 217.516 51.808 217.516 51.392V47.472C217.516 46.992 217.436 46.64 217.276 46.416C217.126 46.1813 216.844 46.064 216.428 46.064V45.728C216.769 45.76 217.1 45.776 217.42 45.776C217.814 45.776 218.188 45.76 218.54 45.728C218.902 45.6853 219.233 45.6267 219.532 45.552ZM225.158 41.472V52.512C225.158 52.96 225.238 53.264 225.398 53.424C225.569 53.584 225.852 53.664 226.246 53.664V54C226.054 53.9893 225.761 53.9787 225.366 53.968C224.982 53.9467 224.588 53.936 224.182 53.936C223.788 53.936 223.382 53.9467 222.966 53.968C222.561 53.9787 222.257 53.9893 222.054 54V53.664C222.449 53.664 222.726 53.584 222.886 53.424C223.057 53.264 223.142 52.96 223.142 52.512V43.392C223.142 42.912 223.068 42.56 222.918 42.336C222.769 42.1013 222.481 41.984 222.054 41.984V41.648C222.396 41.68 222.726 41.696 223.046 41.696C223.452 41.696 223.83 41.68 224.182 41.648C224.534 41.6053 224.86 41.5467 225.158 41.472ZM230.818 43.104V45.744H232.866V46.064H230.818V52.432C230.818 52.816 230.887 53.088 231.026 53.248C231.165 53.408 231.362 53.488 231.618 53.488C231.863 53.488 232.087 53.3973 232.29 53.216C232.493 53.024 232.674 52.7093 232.834 52.272L233.122 52.4C232.962 52.9227 232.711 53.36 232.37 53.712C232.039 54.0533 231.57 54.224 230.962 54.224C230.599 54.224 230.29 54.176 230.034 54.08C229.789 53.9947 229.575 53.8667 229.394 53.696C229.159 53.4507 228.999 53.1573 228.914 52.816C228.839 52.4747 228.802 52.0213 228.802 51.456V46.064H227.394V45.744H228.802V43.52C229.186 43.5093 229.543 43.472 229.874 43.408C230.205 43.344 230.519 43.2427 230.818 43.104ZM236.203 41.648C236.587 41.648 236.902 41.7547 237.147 41.968C237.392 42.1813 237.515 42.464 237.515 42.816C237.515 43.168 237.392 43.4507 237.147 43.664C236.902 43.8773 236.587 43.984 236.203 43.984C235.819 43.984 235.504 43.8773 235.259 43.664C235.014 43.4507 234.891 43.168 234.891 42.816C234.891 42.464 235.014 42.1813 235.259 41.968C235.504 41.7547 235.819 41.648 236.203 41.648ZM237.323 45.552V52.512C237.323 52.96 237.403 53.264 237.563 53.424C237.734 53.584 238.016 53.664 238.411 53.664V54C238.219 53.9893 237.926 53.9787 237.531 53.968C237.136 53.9467 236.736 53.936 236.331 53.936C235.936 53.936 235.536 53.9467 235.131 53.968C234.726 53.9787 234.422 53.9893 234.219 54V53.664C234.614 53.664 234.891 53.584 235.051 53.424C235.222 53.264 235.307 52.96 235.307 52.512V47.488C235.307 46.9973 235.227 46.64 235.067 46.416C234.918 46.1813 234.635 46.064 234.219 46.064V45.728C234.56 45.76 234.891 45.776 235.211 45.776C235.606 45.776 235.979 45.76 236.331 45.728C236.694 45.6853 237.024 45.6267 237.323 45.552ZM245.685 45.504C246.133 45.504 246.49 45.5627 246.757 45.68C247.034 45.7973 247.258 45.9467 247.429 46.128C247.621 46.3307 247.754 46.592 247.829 46.912C247.914 47.232 247.957 47.664 247.957 48.208V52.512C247.957 52.96 248.037 53.264 248.197 53.424C248.368 53.584 248.65 53.664 249.045 53.664V54C248.853 53.9893 248.554 53.9787 248.149 53.968C247.754 53.9467 247.37 53.936 246.997 53.936C246.602 53.936 246.218 53.9467 245.845 53.968C245.472 53.9787 245.194 53.9893 245.013 54V53.664C245.354 53.664 245.594 53.584 245.733 53.424C245.872 53.264 245.941 52.96 245.941 52.512V47.664C245.941 47.376 245.914 47.12 245.861 46.896C245.808 46.6613 245.701 46.48 245.541 46.352C245.381 46.2133 245.152 46.144 244.853 46.144C244.501 46.144 244.186 46.24 243.909 46.432C243.642 46.624 243.429 46.8907 243.269 47.232C243.12 47.5627 243.045 47.936 243.045 48.352V52.512C243.045 52.96 243.114 53.264 243.253 53.424C243.392 53.584 243.632 53.664 243.973 53.664V54C243.792 53.9893 243.52 53.9787 243.157 53.968C242.794 53.9467 242.426 53.936 242.053 53.936C241.658 53.936 241.258 53.9467 240.853 53.968C240.448 53.9787 240.144 53.9893 239.941 54V53.664C240.336 53.664 240.613 53.584 240.773 53.424C240.944 53.264 241.029 52.96 241.029 52.512V47.472C241.029 46.992 240.949 46.64 240.789 46.416C240.64 46.1813 240.357 46.064 239.941 46.064V45.728C240.282 45.76 240.613 45.776 240.933 45.776C241.328 45.776 241.701 45.76 242.053 45.728C242.416 45.6853 242.746 45.6267 243.045 45.552V47.152C243.312 46.544 243.68 46.1173 244.149 45.872C244.618 45.6267 245.13 45.504 245.685 45.504ZM253.39 57.008C252.761 57.008 252.19 56.9493 251.678 56.832C251.166 56.7147 250.761 56.5387 250.462 56.304C250.164 56.08 250.014 55.792 250.014 55.44C250.014 55.0987 250.164 54.7947 250.462 54.528C250.761 54.2613 251.198 54.0587 251.774 53.92L251.886 54.176C251.684 54.2933 251.529 54.4533 251.422 54.656C251.316 54.8587 251.262 55.072 251.262 55.296C251.262 55.7547 251.47 56.1067 251.886 56.352C252.313 56.608 252.878 56.736 253.582 56.736C254.062 56.736 254.505 56.672 254.91 56.544C255.316 56.416 255.641 56.2187 255.886 55.952C256.132 55.6853 256.254 55.3547 256.254 54.96C256.254 54.6293 256.132 54.352 255.886 54.128C255.652 53.904 255.177 53.792 254.462 53.792H253.406C253.012 53.792 252.649 53.7493 252.318 53.664C251.998 53.5787 251.742 53.44 251.55 53.248C251.358 53.056 251.262 52.7893 251.262 52.448C251.262 52.032 251.433 51.6587 251.774 51.328C252.116 50.9867 252.649 50.656 253.374 50.336L253.55 50.48C253.284 50.6187 253.044 50.768 252.83 50.928C252.628 51.088 252.526 51.2907 252.526 51.536C252.526 51.8773 252.761 52.048 253.23 52.048H255.038C255.593 52.048 256.084 52.1173 256.51 52.256C256.948 52.3947 257.294 52.6133 257.55 52.912C257.806 53.2107 257.934 53.6053 257.934 54.096C257.934 54.608 257.769 55.0827 257.438 55.52C257.108 55.968 256.606 56.3253 255.934 56.592C255.273 56.8693 254.425 57.008 253.39 57.008ZM253.534 50.592C252.958 50.592 252.436 50.5067 251.966 50.336C251.508 50.1547 251.145 49.8773 250.878 49.504C250.612 49.12 250.478 48.6347 250.478 48.048C250.478 47.4613 250.612 46.9813 250.878 46.608C251.145 46.2347 251.508 45.9573 251.966 45.776C252.436 45.5947 252.958 45.504 253.534 45.504C254.121 45.504 254.644 45.5947 255.102 45.776C255.561 45.9573 255.924 46.2347 256.19 46.608C256.457 46.9813 256.59 47.4613 256.59 48.048C256.59 48.6347 256.457 49.12 256.19 49.504C255.924 49.8773 255.561 50.1547 255.102 50.336C254.644 50.5067 254.121 50.592 253.534 50.592ZM253.534 50.304C253.854 50.304 254.105 50.144 254.286 49.824C254.478 49.4933 254.574 48.9013 254.574 48.048C254.574 47.1947 254.478 46.608 254.286 46.288C254.105 45.9573 253.854 45.792 253.534 45.792C253.214 45.792 252.958 45.9573 252.766 46.288C252.585 46.608 252.494 47.1947 252.494 48.048C252.494 48.9013 252.585 49.4933 252.766 49.824C252.958 50.144 253.214 50.304 253.534 50.304ZM255.95 46.864L255.646 46.752C255.806 46.3573 256.068 46.0267 256.43 45.76C256.793 45.4827 257.177 45.344 257.582 45.344C257.892 45.344 258.132 45.4293 258.302 45.6C258.484 45.7707 258.574 46.0107 258.574 46.32C258.574 46.64 258.489 46.8747 258.318 47.024C258.148 47.1733 257.961 47.248 257.758 47.248C257.577 47.248 257.412 47.1893 257.262 47.072C257.113 46.944 257.028 46.752 257.006 46.496C256.985 46.2293 257.07 45.8987 257.262 45.504L257.422 45.568C257.006 45.728 256.697 45.904 256.494 46.096C256.292 46.288 256.11 46.544 255.95 46.864ZM177.32 63.448C178.035 63.448 178.616 63.5547 179.064 63.768C179.512 63.9707 179.923 64.2107 180.296 64.488C180.424 64.5947 180.531 64.648 180.616 64.648C180.819 64.648 180.952 64.3227 181.016 63.672H181.384C181.363 64.0773 181.347 64.5733 181.336 65.16C181.325 65.7467 181.32 66.52 181.32 67.48H180.952C180.877 66.904 180.771 66.3867 180.632 65.928C180.493 65.4693 180.243 65.08 179.88 64.76C179.603 64.4613 179.251 64.232 178.824 64.072C178.408 63.9013 177.987 63.816 177.56 63.816C176.995 63.816 176.499 63.9653 176.072 64.264C175.656 64.552 175.304 64.952 175.016 65.464C174.739 65.9653 174.531 66.552 174.392 67.224C174.253 67.8853 174.184 68.5947 174.184 69.352C174.184 71.272 174.461 72.68 175.016 73.576C175.581 74.4613 176.408 74.904 177.496 74.904C177.795 74.904 178.051 74.8667 178.264 74.792C178.488 74.7067 178.669 74.6213 178.808 74.536C178.979 74.4187 179.091 74.296 179.144 74.168C179.197 74.04 179.224 73.88 179.224 73.688V72.12C179.224 71.6507 179.181 71.304 179.096 71.08C179.011 70.8453 178.851 70.6853 178.616 70.6C178.392 70.5147 178.056 70.4667 177.608 70.456V70.136C177.821 70.1467 178.072 70.1573 178.36 70.168C178.659 70.168 178.968 70.1733 179.288 70.184C179.619 70.184 179.917 70.184 180.184 70.184C180.6 70.184 180.979 70.1787 181.32 70.168C181.661 70.1573 181.944 70.1467 182.168 70.136V70.456C181.955 70.4667 181.789 70.504 181.672 70.568C181.565 70.632 181.496 70.76 181.464 70.952C181.432 71.144 181.416 71.4373 181.416 71.832V75H181.096C181.085 74.8187 181.043 74.6213 180.968 74.408C180.893 74.1947 180.781 74.088 180.632 74.088C180.557 74.088 180.472 74.1093 180.376 74.152C180.28 74.184 180.115 74.264 179.88 74.392C179.507 74.6373 179.107 74.84 178.68 75C178.264 75.1493 177.805 75.224 177.304 75.224C176.109 75.224 175.096 75 174.264 74.552C173.443 74.0933 172.819 73.4373 172.392 72.584C171.965 71.72 171.752 70.6907 171.752 69.496C171.752 68.2693 171.992 67.2027 172.472 66.296C172.952 65.3893 173.608 64.6907 174.44 64.2C175.283 63.6987 176.243 63.448 177.32 63.448ZM189.106 66.504C189.437 66.504 189.709 66.5733 189.922 66.712C190.146 66.8507 190.311 67.0267 190.418 67.24C190.525 67.4533 190.578 67.6773 190.578 67.912C190.578 68.264 190.471 68.5573 190.258 68.792C190.055 69.0267 189.783 69.144 189.442 69.144C189.122 69.144 188.861 69.0587 188.658 68.888C188.455 68.7173 188.354 68.4827 188.354 68.184C188.354 67.9173 188.418 67.6933 188.546 67.512C188.685 67.3307 188.839 67.1867 189.01 67.08C188.893 67.016 188.759 66.9947 188.61 67.016C188.354 67.0373 188.119 67.128 187.906 67.288C187.693 67.448 187.511 67.6453 187.362 67.88C187.213 68.1147 187.095 68.3653 187.01 68.632C186.935 68.8987 186.898 69.1547 186.898 69.4V73.352C186.898 73.8747 187.031 74.2267 187.298 74.408C187.565 74.5787 187.954 74.664 188.466 74.664V75C188.221 74.9893 187.863 74.9787 187.394 74.968C186.935 74.9467 186.455 74.936 185.954 74.936C185.538 74.936 185.122 74.9467 184.706 74.968C184.301 74.9787 183.997 74.9893 183.794 75V74.664C184.189 74.664 184.466 74.584 184.626 74.424C184.797 74.264 184.882 73.96 184.882 73.512V68.472C184.882 67.992 184.802 67.64 184.642 67.416C184.493 67.1813 184.21 67.064 183.794 67.064V66.728C184.135 66.76 184.466 66.776 184.786 66.776C185.181 66.776 185.554 66.76 185.906 66.728C186.269 66.6853 186.599 66.6267 186.898 66.552V68.216C187.026 67.9173 187.191 67.64 187.394 67.384C187.607 67.128 187.858 66.92 188.146 66.76C188.445 66.5893 188.765 66.504 189.106 66.504ZM195.752 66.504C196.488 66.504 197.139 66.6533 197.704 66.952C198.28 67.24 198.733 67.704 199.064 68.344C199.405 68.984 199.576 69.8267 199.576 70.872C199.576 71.9173 199.405 72.76 199.064 73.4C198.733 74.04 198.28 74.504 197.704 74.792C197.139 75.08 196.488 75.224 195.752 75.224C195.016 75.224 194.36 75.08 193.784 74.792C193.208 74.504 192.755 74.04 192.424 73.4C192.093 72.76 191.928 71.9173 191.928 70.872C191.928 69.8267 192.093 68.984 192.424 68.344C192.755 67.704 193.208 67.24 193.784 66.952C194.36 66.6533 195.016 66.504 195.752 66.504ZM195.752 66.824C195.251 66.824 194.84 67.144 194.52 67.784C194.211 68.4133 194.056 69.4427 194.056 70.872C194.056 72.3013 194.211 73.3307 194.52 73.96C194.84 74.5893 195.251 74.904 195.752 74.904C196.243 74.904 196.648 74.5893 196.968 73.96C197.288 73.3307 197.448 72.3013 197.448 70.872C197.448 69.4427 197.288 68.4133 196.968 67.784C196.648 67.144 196.243 66.824 195.752 66.824ZM209.153 66.552V73.272C209.153 73.752 209.233 74.1093 209.393 74.344C209.553 74.568 209.836 74.68 210.241 74.68V75.016C209.911 74.984 209.58 74.968 209.249 74.968C208.855 74.968 208.476 74.984 208.113 75.016C207.761 75.048 207.436 75.1067 207.137 75.192V73.592C206.871 74.1787 206.503 74.6 206.033 74.856C205.575 75.1013 205.079 75.224 204.545 75.224C204.129 75.224 203.777 75.1653 203.489 75.048C203.212 74.9413 202.988 74.792 202.817 74.6C202.636 74.3973 202.508 74.1307 202.433 73.8C202.359 73.4693 202.321 73.0427 202.321 72.52V68.472C202.321 67.992 202.241 67.64 202.081 67.416C201.932 67.1813 201.649 67.064 201.233 67.064V66.728C201.575 66.76 201.905 66.776 202.225 66.776C202.62 66.776 202.993 66.76 203.345 66.728C203.708 66.6853 204.039 66.6267 204.337 66.552V73.08C204.337 73.368 204.359 73.624 204.401 73.848C204.455 74.072 204.556 74.2533 204.705 74.392C204.855 74.52 205.079 74.584 205.377 74.584C205.708 74.584 206.007 74.488 206.273 74.296C206.54 74.104 206.748 73.8427 206.897 73.512C207.057 73.1813 207.137 72.808 207.137 72.392V68.472C207.137 67.992 207.057 67.64 206.897 67.416C206.748 67.1813 206.465 67.064 206.049 67.064V66.728C206.391 66.76 206.721 66.776 207.041 66.776C207.436 66.776 207.809 66.76 208.161 66.728C208.524 66.6853 208.855 66.6267 209.153 66.552ZM214.78 66.568V76.344C214.78 76.824 214.908 77.144 215.164 77.304C215.431 77.4747 215.794 77.56 216.252 77.56V77.896C215.996 77.8853 215.634 77.8693 215.164 77.848C214.706 77.8373 214.215 77.832 213.692 77.832C213.33 77.832 212.967 77.8373 212.604 77.848C212.242 77.8693 211.964 77.8853 211.772 77.896V77.56C212.135 77.56 212.391 77.4853 212.54 77.336C212.69 77.1867 212.764 76.9093 212.764 76.504V68.488C212.764 68.008 212.69 67.656 212.54 67.432C212.391 67.1973 212.103 67.08 211.676 67.08V66.744C212.018 66.776 212.348 66.792 212.668 66.792C213.074 66.792 213.452 66.776 213.804 66.744C214.156 66.7013 214.482 66.6427 214.78 66.568ZM217.292 66.504C217.847 66.504 218.343 66.6587 218.78 66.968C219.218 67.2667 219.559 67.7093 219.804 68.296C220.06 68.8827 220.188 69.6187 220.188 70.504C220.188 71.208 220.108 71.8533 219.948 72.44C219.788 73.016 219.548 73.512 219.228 73.928C218.919 74.344 218.535 74.664 218.076 74.888C217.618 75.112 217.095 75.224 216.508 75.224C216.06 75.224 215.66 75.1387 215.308 74.968C214.956 74.7973 214.7 74.568 214.54 74.28L214.7 74.056C214.828 74.28 215.004 74.4613 215.228 74.6C215.452 74.7387 215.719 74.808 216.028 74.808C216.54 74.808 216.946 74.6427 217.244 74.312C217.543 73.9707 217.751 73.496 217.868 72.888C217.996 72.28 218.06 71.576 218.06 70.776C218.06 69.8907 218.002 69.1813 217.884 68.648C217.767 68.1147 217.591 67.7307 217.356 67.496C217.122 67.2507 216.844 67.128 216.524 67.128C216.087 67.128 215.692 67.304 215.34 67.656C214.999 67.9973 214.791 68.4987 214.716 69.16L214.604 68.712C214.775 68.008 215.1 67.464 215.58 67.08C216.06 66.696 216.631 66.504 217.292 66.504Z" fill="white"/>
<rect y="89" width="278" height="4" rx="2" fill="white"/>
</svg>
